<svg width="180" height="180" viewBox="0 0 180 180" fill="none" xmlns="http://www.w3.org/2000/svg">
<g clip-path="url(#clip0_65_68)">
<path d="M60.2083 144.796C60.2083 145.583 59.4211 146.145 58.2965 146.145C57.1719 146.145 56.2722 146.145 56.2722 144.796C56.2722 143.447 57.1719 143.447 58.184 143.447C59.1962 143.447 60.2083 144.009 60.2083 144.796ZM48.9622 143.11C48.9622 143.897 48.9622 144.796 50.5367 145.021C50.9394 145.214 51.4024 145.24 51.824 145.093C52.2457 144.946 52.5916 144.636 52.7859 144.234C52.7859 143.447 52.7859 142.66 51.2114 142.323C49.637 141.986 49.1871 142.323 48.9622 143.11ZM64.9317 142.548C63.9196 142.548 63.2448 143.447 63.3573 144.346C63.4697 145.246 64.3694 145.583 65.494 145.358C66.6186 145.133 67.1809 144.346 67.0685 143.559C66.956 142.773 66.0563 142.435 64.9317 142.548ZM88.8856 0.00706715C77.0255 -0.10456 65.2645 2.18014 54.3091 6.72402C43.3536 11.2679 33.4295 17.9773 25.1321 26.4496C16.8348 34.9219 10.3353 44.9825 6.02378 56.0276C1.71224 67.0727 -0.32264 78.8742 0.0415096 90.7249C-0.272483 110.138 5.48723 129.164 16.516 145.146C27.5447 161.128 43.2918 173.267 61.5579 179.869C66.1688 180.656 67.8554 177.733 67.8554 175.373C67.8554 173.012 67.8554 160.309 67.8554 152.89C67.8554 152.89 42.4394 158.511 37.0413 141.648C37.0413 141.648 32.9927 130.407 27.0322 128.046C27.0322 128.046 18.7101 122.201 27.5945 122.313C30.5044 122.706 33.2817 123.775 35.7036 125.434C38.1254 127.093 40.1243 129.298 41.5398 131.868C42.7164 134.174 44.3521 136.215 46.3462 137.866C48.3403 139.517 50.6509 140.744 53.1362 141.47C55.6216 142.196 58.2291 142.407 60.799 142.09C63.3688 141.773 65.8467 140.933 68.0803 139.625C68.5065 134.932 70.5308 130.527 73.8158 127.147C53.5731 124.786 33.1052 121.864 33.1052 86.0035C32.8901 81.9521 33.5413 77.9018 35.015 74.1225C36.4888 70.3431 38.7514 66.9202 41.6522 64.083C38.9154 55.854 39.2347 46.9152 42.5519 38.9023C50.1993 36.4292 67.6305 48.9071 67.6305 48.9071C82.5226 44.7088 98.2863 44.7088 113.177 48.9071C113.177 48.9071 130.609 36.4292 138.256 38.9023C141.646 46.8994 141.965 55.8647 139.156 64.083C142.16 66.8811 144.542 70.2779 146.15 74.0539C147.757 77.8299 148.554 81.9004 148.49 86.0035C148.49 121.976 127.123 124.786 106.879 127.147C108.914 129.428 110.462 132.1 111.43 134.999C112.396 137.898 112.761 140.964 112.503 144.009C112.503 156.599 112.503 172.113 112.503 175.148C112.496 175.907 112.671 176.656 113.015 177.333C113.361 178.01 113.862 178.594 114.481 179.035C115.098 179.477 115.815 179.762 116.566 179.868C117.318 179.975 118.085 179.897 118.8 179.644C137.034 173.1 152.748 160.995 163.725 145.04C174.704 129.085 180.389 110.085 179.979 90.7249C180.085 78.7539 177.799 66.8821 173.254 55.8059C168.71 44.7296 161.998 34.6718 153.514 26.2223C145.03 17.7729 134.942 11.1017 123.844 6.60004C112.747 2.09842 100.862 -0.143005 88.8856 0.00706715ZM35.3544 128.271C35.3544 128.271 35.3544 129.508 35.3544 130.182C35.4798 130.308 35.6287 130.408 35.7928 130.476C35.9568 130.544 36.1326 130.579 36.3103 130.579C36.4879 130.579 36.6638 130.544 36.8278 130.476C36.9918 130.408 37.1408 130.308 37.2662 130.182C37.2662 130.182 37.2662 128.946 37.2662 128.159C37.2662 127.372 35.8042 127.822 35.3544 128.271ZM31.4182 125.236C31.4182 125.236 31.4182 126.36 32.2055 126.697C32.3003 126.815 32.4203 126.91 32.5565 126.975C32.6926 127.039 32.8418 127.074 32.9927 127.074C33.1436 127.074 33.2926 127.039 33.4288 126.975C33.5651 126.91 33.685 126.815 33.7799 126.697C33.7799 126.697 33.7799 125.573 32.9927 125.236C32.2055 124.899 31.6432 124.899 31.4182 125.236ZM42.6644 138.501C42.6644 138.501 42.6644 140.075 42.6644 140.862C42.6644 141.648 44.5762 141.761 45.0261 140.862C45.4759 139.962 45.0261 139.288 45.0261 138.501C45.0261 137.714 43.5641 137.939 43.1142 138.501H42.6644ZM38.5033 132.993C38.5033 132.993 38.5033 134.342 38.5033 135.241C38.5033 136.14 40.0778 136.477 40.6401 136.14C40.9248 135.813 41.0817 135.394 41.0817 134.96C41.0817 134.526 40.9248 134.107 40.6401 133.779C40.0778 132.88 39.1781 132.543 38.5033 132.993Z" fill="white"/>
</g>
<defs>
<clipPath id="clip0_65_68">
<rect width="180" height="180" fill="white"/>
</clipPath>
</defs>
</svg>
