<svg width="180" height="180" viewBox="0 0 180 180" fill="none" xmlns="http://www.w3.org/2000/svg">
<path d="M71.0511 123.983C71.0511 124.494 70.5144 124.86 69.7476 124.86C68.9808 124.86 68.3674 124.86 68.3674 123.983C68.3674 123.106 68.9808 123.106 69.6709 123.106C70.361 123.106 71.0511 123.472 71.0511 123.983ZM63.3833 122.887C63.3833 123.399 63.3833 123.983 64.4568 124.129C64.7314 124.255 65.0471 124.272 65.3345 124.176C65.6221 124.08 65.8579 123.879 65.9904 123.618C65.9904 123.106 65.9904 122.595 64.9169 122.376C63.8434 122.157 63.5367 122.376 63.3833 122.887ZM74.2716 122.522C73.5815 122.522 73.1214 123.106 73.1981 123.691C73.2748 124.275 73.8882 124.494 74.655 124.348C75.4218 124.202 75.8052 123.691 75.7285 123.179C75.6518 122.668 75.0384 122.449 74.2716 122.522ZM90.6038 29.8963C82.5174 29.8238 74.4985 31.3084 67.0289 34.2611C59.5593 37.2138 52.7928 41.5738 47.1355 47.0792C41.4783 52.5847 37.0468 59.1223 34.1071 66.2995C31.1674 73.4769 29.78 81.1457 30.0283 88.8465C29.8142 101.461 33.7413 113.825 41.2609 124.21C48.7805 134.596 59.5171 142.484 71.9713 146.774C75.1151 147.286 76.265 145.386 76.265 143.852C76.265 142.318 76.265 134.064 76.265 129.243C76.265 129.243 58.936 132.895 55.2554 121.938C55.2554 121.938 52.495 114.633 48.4311 113.099C48.4311 113.099 42.7569 109.3 48.8145 109.373C50.7984 109.628 52.6921 110.323 54.3433 111.401C55.9946 112.479 57.3575 113.912 58.3226 115.582C59.1248 117.081 60.2401 118.407 61.5997 119.48C62.9593 120.553 64.5347 121.35 66.2292 121.821C67.9238 122.293 69.7017 122.431 71.4539 122.225C73.206 122.019 74.8955 121.473 76.4184 120.623C76.709 117.573 78.0892 114.711 80.329 112.514C66.5271 110.98 52.5717 109.081 52.5717 85.7785C52.4251 83.1458 52.869 80.5139 53.8738 78.058C54.8787 75.6021 56.4214 73.3778 58.3992 71.5341C56.5332 66.1867 56.751 60.3781 59.0127 55.1712C64.2268 53.5641 76.1117 61.6725 76.1117 61.6725C86.2654 58.9444 97.0134 58.9444 107.166 61.6725C107.166 61.6725 119.051 53.5641 124.266 55.1712C126.577 60.3679 126.794 66.1937 124.879 71.5341C126.927 73.3524 128.551 75.5597 129.648 78.0134C130.743 80.4671 131.287 83.1122 131.243 85.7785C131.243 109.154 116.674 110.98 102.872 112.514C104.259 113.997 105.315 115.733 105.975 117.617C106.633 119.501 106.883 121.493 106.706 123.472C106.706 131.653 106.706 141.734 106.706 143.706C106.702 144.199 106.821 144.686 107.056 145.126C107.291 145.566 107.633 145.946 108.055 146.232C108.476 146.519 108.964 146.705 109.477 146.774C109.99 146.843 110.513 146.792 111 146.628C123.432 142.375 134.146 134.509 141.631 124.142C149.116 113.774 152.992 101.427 152.713 88.8465C152.785 81.0676 151.226 73.353 148.128 66.1555C145.029 58.9579 140.453 52.4222 134.669 46.9315C128.884 41.4409 122.006 37.1058 114.439 34.1806C106.873 31.2553 98.7693 29.7988 90.6038 29.8963ZM54.1053 113.245C54.1053 113.245 54.1053 114.048 54.1053 114.487C54.1908 114.568 54.2923 114.633 54.4041 114.677C54.516 114.722 54.6359 114.745 54.757 114.745C54.8781 114.745 54.998 114.722 55.1099 114.677C55.2217 114.633 55.3233 114.568 55.4088 114.487C55.4088 114.487 55.4088 113.683 55.4088 113.172C55.4088 112.66 54.412 112.953 54.1053 113.245ZM51.4215 111.273C51.4215 111.273 51.4215 112.003 51.9583 112.222C52.0229 112.299 52.1047 112.36 52.1976 112.403C52.2904 112.444 52.3921 112.467 52.495 112.467C52.5979 112.467 52.6995 112.444 52.7924 112.403C52.8853 112.36 52.967 112.299 53.0318 112.222C53.0318 112.222 53.0318 111.492 52.495 111.273C51.9583 111.053 51.5749 111.053 51.4215 111.273ZM59.0893 119.892C59.0893 119.892 59.0893 120.915 59.0893 121.426C59.0893 121.938 60.3929 122.011 60.6996 121.426C61.0063 120.842 60.6996 120.404 60.6996 119.892C60.6996 119.381 59.7028 119.527 59.3961 119.892H59.0893ZM56.2522 116.313C56.2522 116.313 56.2522 117.189 56.2522 117.774C56.2522 118.358 57.3257 118.577 57.7091 118.358C57.9033 118.146 58.0102 117.873 58.0102 117.591C58.0102 117.309 57.9033 117.037 57.7091 116.824C57.3257 116.24 56.7123 116.021 56.2522 116.313Z" fill="white"/>
</svg>
