<svg width="180" height="180" viewBox="0 0 180 180" fill="none" xmlns="http://www.w3.org/2000/svg">
<path d="M11.25 67.2502C11.25 47.6481 11.25 37.8472 15.0648 30.3603C18.4204 23.7747 23.7747 18.4204 30.3603 15.0648C37.8472 11.25 47.6481 11.25 67.2502 11.25H112.75C132.352 11.25 142.153 11.25 149.64 15.0648C156.225 18.4204 161.58 23.7747 164.935 30.3603C168.75 37.8472 168.75 47.6481 168.75 67.2502V112.75C168.75 132.352 168.75 142.153 164.935 149.64C161.58 156.225 156.225 161.58 149.64 164.935C142.153 168.75 132.352 168.75 112.75 168.75H67.2502C47.6481 168.75 37.8472 168.75 30.3603 164.935C23.7747 161.58 18.4204 156.225 15.0648 149.64C11.25 142.153 11.25 132.352 11.25 112.75V67.2502Z" fill="white"/>
<path d="M124.04 47.9417L90.3624 74.2242L55.915 47.9417V47.9487L55.9567 47.9843V84.7868L89.9742 111.637L124.04 85.8235V47.9417Z" fill="#232323"/>
<path d="M132.88 41.5484L124.036 47.9414V85.8234L151.866 64.4569V51.5854C151.866 51.5854 148.488 33.202 132.88 41.5484Z" fill="#7A7A7A"/>
<path d="M124.036 85.8235V134.957H145.366C145.366 134.957 151.436 134.332 151.873 127.414V64.4569L124.036 85.8235Z" fill="#444444"/>
<path d="M55.9582 135.001V84.7868L55.915 84.7513L55.9582 135.001Z" fill="black"/>
<path d="M55.9133 47.9477L47.1176 41.5902C31.5101 33.2438 28.125 51.6201 28.125 51.6201V64.4911L55.9133 84.7501V47.9477Z" fill="black"/>
<path d="M55.915 47.9498V84.7525L55.9582 84.7879V47.9854L55.915 47.9498Z" fill="black"/>
<path d="M28.125 64.5007V127.457C28.5551 134.383 34.6316 135.002 34.6316 135.002H55.9618L55.9133 84.7524L28.125 64.5007Z" fill="#606060"/>
</svg>
