<svg width="180" height="180" viewBox="0 0 180 180" fill="none" xmlns="http://www.w3.org/2000/svg">
<path d="M48.75 60C54.9632 60 60 54.9632 60 48.75C60 42.5368 54.9632 37.5 48.75 37.5C42.5368 37.5 37.5 42.5368 37.5 48.75C37.5 54.9632 42.5368 60 48.75 60Z" fill="white"/>
<path d="M37.5 75C37.5 70.8579 40.8579 67.5 45 67.5H52.5C56.6421 67.5 60 70.8578 60 75V135C60 139.142 56.6421 142.5 52.5 142.5H45C40.8579 142.5 37.5 139.142 37.5 135V75Z" fill="white"/>
<path d="M82.5 142.5H90C94.1422 142.5 97.5 139.142 97.5 135V101.25C97.5 90 120 82.5 120 97.5V135.003C120 139.145 123.358 142.5 127.5 142.5H135C139.142 142.5 142.5 139.142 142.5 135V90C142.5 75 131.25 67.5 116.25 67.5C101.25 67.5 97.5 78.75 97.5 78.75V75C97.5 70.8578 94.1422 67.5 90 67.5H82.5C78.3578 67.5 75 70.8579 75 75V135C75 139.142 78.3578 142.5 82.5 142.5Z" fill="white"/>
<path fill-rule="evenodd" clip-rule="evenodd" d="M150 7.5C162.427 7.5 172.5 17.5736 172.5 30V150C172.5 162.427 162.427 172.5 150 172.5H30C17.5736 172.5 7.5 162.427 7.5 150V30C7.5 17.5736 17.5736 7.5 30 7.5H150ZM150 22.5C154.142 22.5 157.5 25.8579 157.5 30V150C157.5 154.142 154.142 157.5 150 157.5H30C25.8579 157.5 22.5 154.142 22.5 150V30C22.5 25.8579 25.8579 22.5 30 22.5H150Z" fill="white"/>
</svg>
